<svg xmlns="http://www.w3.org/2000/svg" viewBox="0 0 760 620" role="img" aria-labelledby="t"><title id="t">Modulação descendente da dor</title>
<rect width="760" height="620" rx="38" fill="#f7fbfe"/><g font-family="Arial">
<circle cx="380" cy="120" r="82" fill="#e7f3ff"/><path d="M333 119c-8-31 20-53 45-38 19-20 52-5 50 18 28 8 29 42 6 54-5 25-39 31-55 14-17 16-48 2-42-21-23-4-21-30-4-27z" fill="none" stroke="#0b5ea8" stroke-width="8"/>
<text x="470" y="105" font-size="22" font-weight="800" fill="#14395a">cérebro</text><text x="470" y="134" font-size="18" fill="#617489">atenção • emoção</text><text x="470" y="160" font-size="18" fill="#617489">expectativa • contexto</text>
<path d="M380 202v95" stroke="#2bad68" stroke-width="13" stroke-linecap="round"/><path d="m358 276 22 36 22-36" fill="#2bad68"/>
<rect x="238" y="308" width="284" height="84" rx="22" fill="#e4f7ec"/><text x="285" y="344" font-size="22" font-weight="800" fill="#126b3c">centros moduladores</text><text x="276" y="374" font-size="17" fill="#527065">mesencéfalo + tronco encefálico</text>
<path d="M380 392v91" stroke="#2bad68" stroke-width="13" stroke-linecap="round"/><path d="m358 463 22 36 22-36" fill="#2bad68"/>
<rect x="190" y="500" width="380" height="78" rx="22" fill="#fff" stroke="#cfe0ea" stroke-width="4"/><text x="278" y="535" font-size="23" font-weight="800" fill="#14395a">corno dorsal da medula</text><text x="252" y="563" font-size="18" fill="#617489">pode inibir ou facilitar a transmissão</text>
<path d="M150 540c-62-120-55-282 63-374" fill="none" stroke="#e8404f" stroke-width="8" stroke-dasharray="13 12"/><path d="m180 185 40-24-7 46" fill="#e8404f"/><text x="45" y="350" font-size="18" font-weight="700" fill="#b5303d" transform="rotate(-90 45 350)">sinal nociceptivo ascendente</text>
</g></svg>